<?xml version="1.0" encoding="utf-8"?>
<!-- Generator: Adobe Illustrator 16.0.0, SVG Export Plug-In . SVG Version: 6.00 Build 0)  -->
<!DOCTYPE svg PUBLIC "-//W3C//DTD SVG 1.1//EN" "http://www.w3.org/Graphics/SVG/1.1/DTD/svg11.dtd">
<svg version="1.1" id="Layer_1" xmlns="http://www.w3.org/2000/svg" xmlns:xlink="http://www.w3.org/1999/xlink" x="0px" y="0px"
	 width="200px" height="45.75px" viewBox="0 0 200 45.75" enable-background="new 0 0 200 45.75" xml:space="preserve">
<path fill="#DE5027" d="M137.01,37.715l5.226,4.722l-1.105-10.662l-3.56-12.314l-0.226-3.201l-3.451-7.016h-0.007l-2.088-4.642
	l-1.805,4.642h0.008l-3.411,7v0.152l-0.291,3.122L122.621,31.8l-1.597,10.637l5.544-4.687c0.133,1.413,0.851,4.931,5.12,5.014
	c0.143,0.007,0.048,0,0.048,0v-0.009C136.146,42.739,136.812,39.117,137.01,37.715z"/>
<path fill="#E04F26" d="M137.01,37.715l5.226,4.722l-1.105-10.662l-3.56-12.314l-0.226-3.201l-3.451-7.016h-0.007l-2.088-4.642
	l-1.805,4.642h0.008l-3.411,7v0.152l-0.291,3.122L122.621,31.8l-1.597,10.637l5.544-4.687c0.133,1.413,0.851,4.931,5.12,5.014
	c0.143,0.007,0.048,0,0.048,0v-0.009C136.146,42.739,136.812,39.117,137.01,37.715z"/>
<polygon fill="#606060" points="131.799,3.048 131.799,7.875 129.994,7.875 "/>
<polygon fill="#7C7A7B" points="131.799,3.048 133.887,7.875 131.799,7.875 "/>
<polygon fill="#E06226" points="142.254,42.424 141.139,31.337 137.803,32.918 "/>
<polygon fill="#DF5A26" points="141.139,31.337 136.644,15.187 137.803,32.918 "/>
<polygon fill="#E04F26" points="136.438,36.94 137.803,32.918 142.254,42.424 "/>
<polygon fill="#E04F26" points="121.012,42.424 122.598,31.363 125.923,32.973 "/>
<polygon fill="#E06226" points="122.598,31.363 127.204,15.26 125.923,32.973 "/>
<polygon fill="#E06226" points="121.012,42.424 127.258,36.94 125.923,32.973 "/>
<g>
	<path fill="#FFFFFF" d="M145.284,15.207h2.177v17.294h10.872v2.013h-13.049V15.207z"/>
	<path fill="#FFFFFF" d="M168.786,15.064h2.039l8.802,19.449h-2.345l-2.262-5.101h-10.514l-2.289,5.101h-2.233L168.786,15.064z
		 M174.167,27.454l-4.39-9.849l-4.418,9.849H174.167z"/>
	<path fill="#FFFFFF" d="M181.275,15.207h8.224c2.209,0,3.946,0.635,5.048,1.708c0.799,0.825,1.244,1.847,1.244,3.09v0.054
		c0,2.511-1.544,3.806-3.064,4.469c2.29,0.689,4.141,2.013,4.141,4.661v0.055c0,3.315-2.79,5.271-7.008,5.271h-8.584V15.207z
		 M189.141,23.812c2.622,0,4.442-1.184,4.442-3.447v-0.057c0-1.905-1.519-3.145-4.276-3.145h-5.878v6.648H189.141z M189.913,32.559
		c2.929,0,4.745-1.301,4.745-3.45v-0.058c0-2.095-1.766-3.31-5.131-3.31h-6.099v6.817H189.913z"/>
</g>
<polygon fill="#E5AC61" points="132.013,15.187 132.013,7.875 130.002,7.875 126.495,15.187 "/>
<polygon fill="#EDC08F" points="137.348,15.187 131.806,15.187 131.806,7.875 133.894,7.875 "/>
<polygon fill="#E04F26" points="132.013,15.187 126.495,15.187 126.495,15.344 125.171,32.973 126.495,36.84 126.495,36.94 
	126.53,36.94 126.554,37.011 126.554,36.94 132.013,36.94 "/>
<polygon fill="#E37526" points="137.348,15.187 131.806,15.187 131.806,36.94 137.142,36.94 138.553,32.918 "/>
<path fill="#C82336" d="M126.535,36.944c0,0-0.156,5.711,5.188,5.819c0.142,0.007,0.085,0,0.085,0v-5.819H126.535z"/>
<path fill="#EC2227" d="M131.783,42.755c5.144,0,5.318-5.811,5.318-5.811h-5.34"/>
<path fill="#FFFFFF" d="M4.121,14.842h4.326v15.729h9.806v3.934H4.121V14.842z"/>
<path fill="#FFFFFF" d="M28.249,14.701h3.99l8.429,19.804h-4.524l-1.796-4.412h-8.317l-1.802,4.412h-4.409L28.249,14.701z
	 M32.799,26.275l-2.611-6.38l-2.613,6.38H32.799z"/>
<path fill="#FFFFFF" d="M40.532,26.08V14.842h4.326v11.124c0,3.204,1.6,4.862,4.243,4.862c2.642,0,4.242-1.607,4.242-4.724V14.842
	h4.33v11.098c0,5.952-3.345,8.875-8.628,8.875C43.764,34.814,40.532,31.865,40.532,26.08z"/>
<path fill="#FFFFFF" d="M60.645,14.842h3.99l9.213,12.107V14.842h4.272v19.663h-3.682l-9.526-12.501v12.501h-4.268V14.842z"/>
<path fill="#FFFFFF" d="M80.526,24.732v-0.059c0-5.59,4.217-10.171,10.256-10.171c3.708,0,5.928,1.236,7.754,3.039l-2.751,3.173
	c-1.519-1.377-3.063-2.221-5.032-2.221c-3.316,0-5.703,2.753-5.703,6.124v0.057c0,3.368,2.331,6.179,5.703,6.179
	c2.248,0,3.625-0.896,5.171-2.302l2.75,2.782c-2.023,2.162-4.27,3.514-8.061,3.514C84.826,34.847,80.526,30.377,80.526,24.732z"/>
<path fill="#FFFFFF" d="M101.411,14.842h4.325v7.781h7.979v-7.781h4.329v19.663h-4.329V26.61h-7.979v7.895h-4.325V14.842z"/>
<polygon fill="#606060" points="125.893,35.5 126.469,37.215 137.128,37.301 137.794,35.5 "/>
<polygon fill="#7C7A7B" points="131.796,35.103 131.796,37.011 137.128,37.003 137.794,35.103 "/>
</svg>
